# xmcd CD database file
# Copyright (C) 1997 Ti Kan
# 
# Track frame offsets:
#     150
#     652
#     20780
#     44575
#     61727
#     78752
#     98545
#     114802
#     136247
#     154495
#     171502
#     190005
#     208057
#     225552
#     245077
#     263027
#     281677
#     302577
# 
# Disc length: 4285 seconds
# 
# Revision: 1
# Processed by: cddbd v1.4b41PL1 Copyright (c) Steve Scherf et al.
# Submitted via: DiscPlay 4.0.3
# 
DISCID=ed10bb12
DTITLE=\   w -            q
DYEAR=1900
DGENRE=
TTITLE0=VCD
TTITLE1=VCD
TTITLE2=VCD
TTITLE3=VCD
TTITLE4=P e P  
TTITLE5= q
TTITLE6=F   q
TTITLE7=
TTITLE8=@ - K O   n
TTITLE9=R H B  
TTITLE10=@   F  
TTITLE11=M   o
TTITLE12=y  
TTITLE13=H   y
TTITLE14=h  
TTITLE15=o  
TTITLE16=k H   h
TTITLE17=p N  
EXTD=
EXTT0=
EXTT1=
EXTT2=
EXTT3=
EXTT4=
EXTT5=
EXTT6=
EXTT7=
EXTT8=
EXTT9=
EXTT10=
EXTT11=
EXTT12=
EXTT13=
EXTT14=
EXTT15=
EXTT16=
EXTT17=
PLAYORDER=
